{"title":"Kill or Be Killed 2015 Movies HDRip XviD ESubs New Sample ☻rDX☻","uid":13708533,"size":738702482,"categoryP":"video","categoryS":"movies","magnet":"?xt=urn:btih:47457decd2e26688462a5cd07d2fc1b664fd4321&amp;dn=Kill+or+Be+Killed+2015+Movies+HDRip+XviD+ESubs+New+Sample+%E2%98%BBrDX%E2%98%BB&amp;tr=udp%3A%2F%2Ftracker.leechers-paradise.org%3A6969&amp;tr=udp%3A%2F%2Fzer0day.ch%3A1337&amp;tr=udp%3A%2F%2Fopen.demonii.com%3A1337&amp;tr=udp%3A%2F%2Ftracker.coppersurfer.tk%3A6969&amp;tr=udp%3A%2F%2Fexodus.desync.com%3A6969","seeders":0,"leechers":1,"uploader":"basicssom","files":3,"time":1456848396,"description":"----------------------------------------------------------------\r\nKill or Be Killed 2015 English Movies HDRip XviD ESubs AAC New Source with Sample ~ ☻rDX☻\r\n\r\nSCREEN SHOTS &amp; POSTER:\r\n  \nhttp://mobileshosting.com/2016/3/policy/index.htm  \nhttp://mobileshosting.com/2016/3/policy/1.html  \nhttp://mobileshosting.com/2016/3/policy/2.html  \nhttp://mobileshosting.com/2016/3/policy/3.html  \nhttp://mobileshosting.com/2016/3/policy/4.html  \nhttp://mobileshosting.com/2016/3/policy/5.html  \nhttp://mobileshosting.com/2016/3/policy/6.html  \nhttp://mobileshosting.com/2016/3/policy/7.html  \nhttp://mobileshosting.com/2016/3/policy/8.html  \nhttp://mobileshosting.com/2016/3/policy/9.html  \nhttp://mobileshosting.com/2016/3/policy/10.html\r\n\r\nFormat                                   : Matroska\r\nFormat version                           : Version 4 / Version 2\r\nFile size                                : 693 MiB\r\nDuration                                 : 1h 43mn\r\nOverall bit rate                         : 935 Kbps\r\nMovie name                               : Kill or Be Killed 2015 English Movies HDRip XviD ESubs AAC New Source ☻rDX☻\r\n\r\nVideo\r\nID                                       : 1\r\nFormat                                   : MPEG-4 Visual\r\nFormat profile                           : Advanced   \r\nFormat settings, BVOP                    : Yes\r\nFormat settings, QPel                    : No\r\nFormat settings, GMC                     : No warppoints\r\nFormat settings, Matrix                  : Default (H.263)\r\nCodec ID                                 : V_MS/VFW/FOURCC / XVID\r\nCodec ID/Hint                            : XviD\r\nDuration                                 : 1h 43mn\r\nBit rate                                 : 788 Kbps\r\nWidth                                    : 640 pixels\r\nHeight                                   : 272 pixels\r\nDisplay aspect ratio                     : 2.35:1\r\nFrame rate mode                          : Constant\r\nFrame rate                               : 23.976 fps\r\nColor space                              : YUV\r\nChroma subsampling                       : 4:2:0\r\nBit depth                                : 8 bits\r\nScan type                                : Progressive\r\nCompression mode                         : Lossy\r\nBits/(Pixel*Frame)                       : 0.189\r\nStream size                              : 585 MiB (84%)\r\nTitle                                    : ☻rDX☻\r\nWriting library                          : XviD 67\r\nDefault                                  : Yes\r\nForced                                   : No\r\n\r\nAudio\r\nID                                       : 2\r\nFormat                                   : MPEG Audio\r\nFormat version                           : Version 1\r\nFormat profile                           : Layer 3\r\nMode                                     : Joint stereo\r\nMode extension                           : MS Stereo\r\nCodec ID                                 : A_MPEG/L3\r\nCodec ID/Hint                            : MP3\r\nDuration                                 : 1h 43mn\r\nBit rate mode                            : Constant\r\nBit rate                                 : 128 Kbps\r\nChannel(s)                               : 2 channels\r\nSampling rate                            : 48.0 KHz\r\nCompression mode                         : Lossy\r\nStream size                              : 94.9 MiB (14%)\r\nTitle                                    : ☻rDX☻\r\nWriting library                          : LAME3.99r\r\nEncoding settings                        : -m j -V 4 -q 3 -lowpass 17 -b 128\r\nDefault                                  : Yes\r\nForced                                   : No\r\n\r\nIMDB                                      \nhttp://www.imdb.com/title/tt2364774/","torrent":{"xt":"urn:btih:47457decd2e26688462a5cd07d2fc1b664fd4321","amp;dn":"Kill+or+Be+Killed+2015+Movies+HDRip+XviD+ESubs+New+Sample+%E2%98%BBrDX%E2%98%BB","amp;tr":["udp%3A%2F%2Ftracker.leechers-paradise.org%3A6969","udp%3A%2F%2Fzer0day.ch%3A1337","udp%3A%2F%2Fopen.demonii.com%3A1337","udp%3A%2F%2Ftracker.coppersurfer.tk%3A6969","udp%3A%2F%2Fexodus.desync.com%3A6969"],"infoHash":"47457decd2e26688462a5cd07d2fc1b664fd4321","infoHashBuffer":{"type":"Buffer","data":[71,69,125,236,210,226,102,136,70,42,92,208,125,47,193,182,100,253,67,33]},"announce":[],"urlList":[]}}